<svg height="191" viewBox="0 0 212 191" width="212" xmlns="http://www.w3.org/2000/svg"><g fill="none" transform="translate(0 -1)"><circle cx="109.7" cy="102.8" fill="#482711" r="88.7"/><circle cx="109.7" cy="102.8" fill="#794503" r="86.5"/><path d="m131.5 21.1c22.7 6.1 40.6 20.7 51.5 39.4 10.8 18.7 14.5 41.6 8.5 64.1v.1c-6 22.6-20.7 40.5-39.4 51.4-18.8 10.8-41.6 14.5-64.2 8.5s-40.5-20.7-51.4-39.4c-10.8-18.8-14.5-41.6-8.5-64.2s20.7-40.5 39.4-51.4c18.7-10.8 41.6-14.5 64.1-8.5zm-2.3 9c20.1 5.4 36.1 18.4 45.7 35.1s12.9 37.1 7.5 57.2-18.4 36.1-35.1 45.7-37.1 12.9-57.2 7.5-36.1-18.4-45.7-35.1-12.9-37.1-7.5-57.2c5.4-20 18.4-36.1 35.1-45.7s37.1-12.9 57.2-7.5zm44.5 35.8c-9.5-16.4-25.2-29.2-44.9-34.4-19.7-5.3-39.7-2.1-56.1 7.4-16.3 9.4-29.1 25.1-34.4 44.8s-2.1 39.7 7.4 56.1 25.2 29.2 44.9 34.4c19.7 5.3 39.7 2.1 56.1-7.4s29.2-25.2 34.4-44.9c5.3-19.6 2.1-39.6-7.4-56zm8-4.7c-10.6-18.4-28.3-32.8-50.5-38.8-22.2-5.9-44.7-2.3-63.1 8.3-18.4 10.7-32.8 28.4-38.8 50.6-5.9 22.2-2.3 44.7 8.3 63.1s28.3 32.8 50.5 38.8c22.2 5.9 44.7 2.3 63.1-8.3s32.8-28.3 38.8-50.5 2.4-44.7-8.3-63.2z" fill="#f2b110"/><path d="m196.2 106c-.2 6.4-1.2 12.8-2.9 19.2-12.4 46.2-59.8 73.6-106 61.2-16.2-4.3-30-13-40.7-24.4 84.7-.3 131.3-37.2 149.6-56z" fill="#794503"/><path d="m194.2 108.1c-.3 5.5-1.2 11.1-2.7 16.6v.1c-6 22.6-20.7 40.5-39.4 51.4-18.8 10.8-41.6 14.5-64.2 8.5-15.2-4.1-28.3-12-38.6-22.5h2c9.9 9.8 22.5 17.3 37 21.2 22.2 5.9 44.7 2.3 63.1-8.3s32.8-28.3 38.8-50.5c1.3-4.9 2.2-9.9 2.6-14.8.4-.8.9-1.3 1.4-1.7zm-10.6 9.4c-.6.5-1.2.9-1.7 1.4-.2 1-.5 2-.7 3-5.3 19.7-18.1 35.4-34.4 44.9-16.4 9.5-36.4 12.7-56.1 7.4-9.7-2.6-18.5-7-26-12.8-.7 0-1.4.1-2.1.1 7.9 6.4 17.3 11.3 27.7 14.1 20.1 5.4 40.5 2.1 57.2-7.5s29.7-25.7 35.1-45.7c.3-1.7.7-3.3 1-4.9z" fill="#f2b110"/><circle cx="109.7" cy="102.8" fill="#482711" r="71.8"/><path d="m26.3 40.8-9.5-2.9h-.1c-1.9-.6-4.9 3-6.8 8.1s-2 9.8-.2 10.6h.1l9.6 4.3z" fill="#6e2623"/><path d="m24.1 42-6 16.2-7.4-3.5c-.3-.6-.2-2-.2-2.5.1-1.9.7-3.8 1.3-5.6s1.5-3.6 2.6-5.1c.3-.4 1.2-1.5 1.8-1.8z" fill="#fcc75a"/><path d="m10.6 54.6c-.2-.7-.1-1.9-.1-2.3.1-1.9.7-3.8 1.3-5.6.7-1.7 1.5-3.6 2.6-5.1.3-.4 1.2-1.5 1.8-1.8l2.3.7c-6.2 3.8-7.7 12.4-7.9 14.1z" fill="#fff"/><path d="m26.6 40.9c-2-.7-5.2 3.6-7.2 8.8s-2.2 10.6-.4 11.3c1.9.7 5.5-2.5 7.7-8.5 2.2-5.9 1.9-10.9-.1-11.6z" fill="#621a40"/><path d="m22.6 31.9-11.9 33.1-6.2.7-4.5 20.4 31.2 17.3 1.9 1.1 1.5.2 29.4 2.3 9.7-18.4-4.2-7.4 8.4-23.5 9.9-3.2 3.3-20.5-23.7-17.7-1.2-.9-2.2-.4-35.9-6-9.8 16.5z" fill="#383954"/><path d="m77.7 52.6-18.7-13.2-16.5 43.9 23 1.9z" fill="#576a7d"/><path d="m24.7 32.7 32.3 5.5-16.4 44.6-28.2-16.5z" fill="#898989"/><path d="m19.3 67.4 21.1 12.5 12.6-34.8s-11.8 21.5-33.7 22.3z" fill="#576a7d"/><path d="m24.7 32.7h.2c.5 3.3 2.7 21.9-12.1 32.5l-.2-.1z" fill="#aaa"/><path d="m76.5 49-1.5-.6-14.5 39.4 1.5.5z" fill="#621a40"/><path d="m88.9 34.2-23.1-16.6-6.8 18.7 23.2 16.2 3.3-.8z" fill="#576a7d"/><path d="m29.8 10.8 34.2 6-6.6 18.1-34.2-6-2.1-3.1z" fill="#898989"/><path d="m42.6 18.7c.2 0 5.1-4 5.1-4l-2.2-.7s-2.8 4.5-2.9 4.7z" fill="#aaa"/><path d="m50.1 22.3 3.3-6.9-2.9-.7c0 .1-.3 7.6-.4 7.6z" fill="#aaa"/><path d="m29.8 10.8 34.2 6v.1l-32.7-3.4s-9.5 12.2-9.9 12.2c-.1 0-.1 0-.2 0z" fill="#aaa"/><path d="m58.4 32.1-1.2 4.2-33-5.4-3.1-5.1.4-.6z" fill="#576a7d"/><path d="m62.6 105.5-28.5-2.5 6.6-18.1 28.8 2.2 1.6 2.9z" fill="#576a7d"/><path d="m2.5 84.9 29.9 17.5 6.8-18.3-33.1-16.9z" fill="#898989"/><path d="m28.1 99.6.8-6.7-3 5.1z" fill="#bfb7bb"/><path d="m2.5 84.9 29.9 17.5v-.1l-27.2-19.1.5-13.9z" fill="#aaa"/><path d="m38.2 86.7 1-2.6-29.2-17.2-3.8.4z" fill="#aaa"/><path d="m79.1 56.5c-2.4-.9-6.5 4.1-9.1 11.1s-2.7 13.5-.3 14.4 6.5-4.1 9.1-11.1c2.5-7.1 2.7-13.6.3-14.4z" fill="#621a40"/><path d="m103.2 68.2-27-10c-2 1.9-4.3 5.6-5.9 10.1-1.4 3.8-2.1 7.5-2.1 10.2l27.5 10.2z" fill="#621a40"/><path d="m102.2 71-25.2-9.3c-1.4 2-2.8 4.6-3.9 7.6-.9 2.5-1.5 5-1.8 7.1l25.5 9.4z" fill="#fff"/><path d="m84.3 59.9-1.7-.6c-1.8-.7-3.5.4-3.6 2.5l-1.3 17.7c-.1 2 1.2 4.3 3.1 4.9l1.7.6c1.8.7 3.5-.4 3.6-2.5l1.3-17.7c.1-2-1.2-4.2-3.1-4.9z" fill="#621a40"/><path d="m83.5 62c.9.3 1.7 1.7 1.6 2.7l-1.3 17.7c0 .5-.1.7-.6.5l-1.7-.6c-.9-.3-1.7-1.7-1.6-2.7l1.3-17.7c0-.5.1-.7.6-.5.1 0 1.7.6 1.7.6z" fill="#fff"/><path d="m72.5 90.9-12.4-1.4 11.8-1.3z" fill="#621a40"/><path d="m5.1 65.6 18.9 12.5-19.7-9.8z" fill="#383954"/><path d="m87.2 51.8-15.9-10.8 13.6 11.8z" fill="#621a40"/><g fill="#383954" transform="translate(5 12)"><path d="m15.2 12.3 39.7 8.3-39.7-6.4z"/><path d="m42.6.8-5.1 6 2.5-6.1z"/><path d="m46.8 2-1.7 8.5-.6-8.8z"/><ellipse cx="46.83854" cy="29.33627" rx="2.200005" ry="1.800004" transform="matrix(.34609923 -.93819791 .93819791 .34609923 3.10453 63.12683)"/><ellipse cx="33.3516" cy="63.8276" rx="2.200005" ry="1.800004" transform="matrix(.34609923 -.93819791 .93819791 .34609923 -38.074284 73.027319)"/><ellipse cx="21.87547" cy="23.95301" rx="1.800004" ry="1.500003" transform="matrix(.34609923 -.93819791 .93819791 .34609923 -8.168277 36.186412)"/><ellipse cx="11.29335" cy="51.15445" rx="1.800004" ry="1.500003" transform="matrix(.34609923 -.93819791 .93819791 .34609923 -40.608268 44.045332)"/><path d="m17.4 86.3 6.6-5.5-3.4 7z"/><path d="m.3 76.9 2.6-5.6.8 6.8z"/></g><path d="m71.6 96.8s-19.8 11-42.2 38.4c0 0-6.9 2.7-7.2 4.1-.2 1.4.5 3.6 1.9 6.3 0 0 .2 15.4 12.8 27.8l22.9-23.1-2.2-6.2s16-17.3 31-25.8-10.8-23.1-17-21.5z" fill="#732e27"/><path d="m63.5 105.2s-19.1 14.3-32.3 31.4l-.8.9s-3.8.7-5.6 2.4c0 0-1 3.5 3.9 6.7h-2.6s1.3 11.9 8.7 19.6l23-16.2s-3.1-6.3-3.4-13.5c0 0 1.1 2.8 2.7 5.3 0 0 10.2-12.8 19.8-18.7 9.9-5.9-8.8-19.4-13.4-17.9z" fill="#f1d2a3"/><path d="m55.3 112.5s4.1 16.8-21.9 26.3c0 0 5-9.8 9.7-14.2 4.5-4.4 12.2-12.1 12.2-12.1z" fill="#f7e3b3"/><path d="m59.4 108.5c-6.3 5.2-18.8 15.9-28.2 28.2l-.8.9s-3.8.7-5.6 2.4c0 0-1 3.4 3.7 6.6-3.6-5.3-1-6.9 4.7-7.6 8-11.3 17.1-20.7 28.1-29.6.6-.6-.2-.9-1.9-.9zm-31.7 38.2h-1.4s1.1 10.2 7.1 17.7c-3.8-5.9-5.5-16.3-5.7-17.7z" fill="#fff"/><path d="m63.5 105.2s-3.3 2.5-8.2 6.7c1 4.9 2 13.7-.7 24.8.2.5 1.3 3 2.7 5.2 0 0 10.2-12.8 19.8-18.7 9.7-6-9-19.5-13.6-18zm-8.9 31.9c0-.1 0-.3 0-.4v.2z" fill="#cf8d67"/><path d="m148.1 120.9s9.6 8.8 19.5 15.7l-4.3 35.6s-15.9-5.2-29.8-22.6c-14.1-17.5 6.9-27.7 14.6-28.7z" fill="#732e27"/><path d="m147.7 123.7s14.4 11.9 18.6 14.2l-5.2 31.5s-16.9-8.3-24.1-21.4c-7.3-13 3.3-23.6 10.7-24.3z" fill="#cf8d67"/><path d="m154.2 138.3s-2.1 6.7.3 20c0 0 1.3 4.7 3.6 8.8.9 1.6 1.7 3 3.1 4.1 0 0 3 2.3 5.9 2.6s6.9-3.6 6.9-3.6 16.7-2.7 17.5-19.6c0 0-15.1-16.1-18.4-15.3-3.2.8-18.9 3-18.9 3z" fill="#57232d"/><path d="m156.2 139.5s-1.7 9.9-1.6 19.5c0 2.7 1.6 6.9 3.3 8.7 0 0 1.4.8 3.7 1.9.4.2-.5-1.7-.8-3 2.4 2.4 4.9 4.7 6.8 5.1 2.8.6 6-3.2 7.6-5.9l-.4 2.8s13.9-3.7 15.3-18.1c0 0-16.8-8.3-17.4-8.5s-16.5-2.5-16.5-2.5z" fill="#f1d2a3"/><path d="m161.7 167.4c2.1 2 4.3 3.9 6 4.3 2.2.5 4.6-1.7 6.4-4-2.1 1.1-7.1 3.2-12.4-.3zm13.4-.4-.2 1.6s13.9-3.7 15.3-18.1l-1-.5c-.8 1.9-1.4 3.4-1.4 3.5 0 0-1.9 8.3-12.7 13.5z" fill="#fff"/><path d="m155.9 141.3c-.3 1.7-.6 4.4-.9 7.7 2 3.4 7 9.6 16.8 10.9 7.8 1.1 13.5-1.2 16.9-3.4.8-1.8 1.3-3.8 1.5-6.1 0 0-16.8-8.3-17.4-8.5s-12.2-1.8-15.6-2.3c-.5.5-.9 1-1.3 1.7z" fill="#cf8d67"/><path d="m98.2 29.8s.3-3.5 2.8-6.8l20.4 9-3.6 4.9z" fill="#fff"/><path d="m149.6 114.8-6.6 47.3c-14.8 8.3-34.7 10.4-50.2 6.1s-25.9-9.1-34.5-19.1c3.6-13.6 8.3-31 14.5-43.5s47.7-7.9 76.8 9.2z" fill="#482711"/><path d="m140.5 163.6 6.8-47.3c-3.5-2-7.1-3.7-10.8-5.4-12-5.3-26.3-9.8-39.5-10.7-6.7-.4-18.7-.2-22.3 6.9-1.7 3.4-3.2 7.2-4.5 10.8-1.6 4.6-3.1 9.2-4.6 13.9-1.9 6.1-3.6 12.2-5.2 18.4-.2 3.7 1.7 6.9 3.8 8.5 7.3 5.8 18 6.9 27.6 9.5 16.9 4.5 34.1 2.5 48.7-4.6z" fill="#885e36"/><path d="m89.8 121.1s-2.5 3.2-.9 6.9c-.6 1.1-1.7 3.8-.8 6.8-2.3 1.5-3.7 3.9-3.2 7.3.8 5.7 5.9 6.7 5 15.1 0 0 12.8-2.3 15.3-12.3.8-2.7.5-5-.5-6.8.8-1 2-3.1 1.9-6.2 0 .1-.1 0-.2-.2.3-.3 2.7-2.4 2.4-6.2 0 .4-6.3-9.4-19-4.4z" fill="#643e25"/><path d="m140.5 163.6 6.8-47.3c-3.5-2-7.1-3.7-10.8-5.4-.7-.3-1.5-.6-2.2-1-5.5 12.8-13.7 24.6-13.7 24.5 0 0-.6 19.9-9.1 36.2 10.2-.2 20.1-2.7 29-7z" fill="#643e25"/><path d="m70.6 117.2c-.1.3-.2.5-.3.8-1.6 4.6-3.1 9.2-4.6 13.9-1.9 6.1-3.6 12.2-5.2 18.4.1 1.7 1.2 2.9 2.1 3.8 9-15.3 8.1-36.7 8.1-36.7s-.1-.1-.1-.2z" fill="#b38855"/><path d="m142.7 142 4.6-25.7c-3.5-2-7.1-3.7-10.8-5.4-12-5.3-26.3-9.8-39.5-10.7-6.7-.4-18.7-.2-22.3 6.9-1.7 3.4-3.2 7.2-4.5 10.8-1.1 3.1-1.7 4.9-2.7 8.1 14 8.6 41.7 15.9 75.2 16z" fill="#643e25"/><path d="m76.7 184.2c-5.4.3-6.7 4.6-13.8 3.3-20.2-1.9-30.4-18.3-30.4-18.3 6.5-22.2 25.8-23.6 25.8-23.6 2.4 10.8 14.3 14.1 23.4 17.6z" fill="#482711"/><path d="m80.1 106.8s-2.6 8.6-3.7 15.7c-1.1 6.9.6 10.1 6.9 12.2 13.3 4.5 28.6 6.5 42.6 6.3 5.8-.1 9.9-2.6 11.8-10.8 2-8.4 3.3-17.6 3.3-17.6s-52.4-18.8-60.9-5.8z" fill="#482711"/><path d="m81.5 107.8c-1.2 3.8-2.2 7.8-3 11.7-.3 1.2-.5 2.4-.7 3.7-.9 5.5-.1 7.7 5.2 9.5 13.5 4.5 28.8 6.5 42.9 6.3 6-.1 8.2-3.3 9.5-8.9 1.2-5.1 2.2-10.4 3-15.6-2.4-.8-4.8-1.6-7.2-2.3-6.8-2.1-13.8-3.9-20.8-5.3-6.1-1.2-12.9-2.3-19.1-2.1-2.7 0-7.8.5-9.8 3z" fill="#cf8d67"/><path d="m70.8 52s-.9-10.1-8.5-11.7c-7.6-1.7-12.3 10.6-7.6 18s11.1 6.4 12.3 5.9c1.3-.6 3.8-12.2 3.8-12.2z" fill="#732e27"/><path d="m70.2 50.8s-2-7.3-8.5-8.7c-7.9-1.9-11.8 21.1 5.8 21.4l2.7-6.4c.1-.1 0-6.3 0-6.3z" fill="#eab48b"/><path d="m68.9 47.6c-1.3-2.2-3.5-4.8-7.1-5.6-5.8-1.4-9.4 10.3-4.2 17-3.7-6.8-.2-16.9 5.1-15.6 2.8.7 4.8 2.5 6.2 4.2z" fill="#fff"/><path d="m69.4 56.7s-1.7-7.2-10.9-12.1c0 0 5.7 5.1 9 14.6h.9z" fill="#732e27"/><path d="m63.7 50.4s-3.4 3-2 7.8c0 0-4.7-4.7.7-10.1z" fill="#732e27"/><path d="m66.4 51.3c3.5-14 8.1-32.7 20.6-41.5 31-22 93.2-1.5 79 44.4l-14.8 29.2c-.1 0-86.5 30.9-84.8-32.1z" fill="#732e27"/><path d="m68.1 54.2c-.3 11.8 3.5 20.1 13.8 27.1 7.5 5.2 17.4 6.8 26.4 7 9.7.2 19.7-1.2 29.2-3.3 3.9-.9 8.1-1.9 12-3.2l14.4-28.5c3.1-10.1 2.7-20.3-3.1-29.4-8.1-12.4-23.9-18.9-38.3-20.2-11.9-1-24.7 1.3-34.5 8.3-11.8 8.3-16.2 25.3-19.9 42.2z" fill="#f1d2a3"/><ellipse cx="130.794282" cy="16.799755" fill="#f7e3b3" rx="3.799817" ry="2.499879" transform="matrix(.99974821 -.02243919 .02243919 .99974821 -.34404 2.939148)"/><ellipse cx="150.52715" cy="18.76638" fill="#c1735c" rx="2.400114" ry="5.500262" transform="matrix(.62707008 -.77896284 .77896284 .62707008 41.517765 124.253601)"/><ellipse cx="146.3673" cy="22.0347" fill="#c1735c" rx="1" ry="2.299966" transform="matrix(.62700941 -.77901168 .77901168 .62700941 37.428337 122.240573)"/><path d="m103.5 22.5s7.3 3.6 4 15.2l-9.2.8c0 .1 4.9-15.5 5.2-16z" fill="#cf8d67"/><path d="m68.1 54.2c-.1 4.4.4 8.4 1.6 11.9 3.1-.8 9.7 2 3.4-6.3-6.2-8.4 3-26.8 3-26.8s-.7-1-1.6-1.9c-2.8 7.1-4.7 15.1-6.4 23.1z" fill="#fff"/><ellipse cx="111.401094" cy="11.997193" fill="#f7e3b3" rx="17.599716" ry="7.699876" transform="matrix(.99671611 -.08097533 .08097533 .99671611 -.605647 9.060138)"/><path d="m122 87.7c5.3-.6 10.5-1.5 15.5-2.6 3.9-.9 8.1-1.9 12-3.2l14.4-28.5c2.2-10.3 1.6-19.7-5.3-29 1.3 6.2.5 15.1-13.7 19.9 0 0-9.5-.6-10 .4s-15 21.9-15.8 23.2-7.7 4-2.7 11.3c2.6 3.8 3.3 6.4 5.6 8.5z" fill="#cf8d67"/><path d="m100.4 37.3s11.1-5.3 24.7 5.4c13.6 10.8-17.3 7.7-19.6 8.5s-10.9 3-9.7-.4c1.1-3.4 4.6-13.5 4.6-13.5z" fill="#cf8d67"/><path d="m124.5 25.2c-3.5 1.2-6.7 12-4.4 15.7 2.6 4.3 9.7 5.9 14.6 6.9 12.5 2.4 27.7-2.3 25.3-21.9 0 0-2.1 3.2-9 3.1-7.7 0-18.7-6.4-26.5-3.8z" fill="#712c2c"/><path d="m159.4 29.7c-10.7 4.3-19.6-2.5-29.9-3.1-2.5-.1-4.7.2-6 2.7-1.5 2.8-2.8 8.2-1.2 10.9 6.1 6.8 23.6 7.5 30.4 2.5 4.2-3.1 6.1-8 6.7-13z" fill="#f59931"/><path d="m157.8 30.2c-10 3-18.5-3.1-28.3-3.6-2.5-.1-4.7.2-6 2.7-1.2 2.1-2.2 5.7-1.9 8.5.1 0 .2-.1.2-.1 1.5-8.2 8.1-8.5 15.3-6.7 5.1 1.1 15.2 3.8 20.7-.8z" fill="#fcd260"/><path d="m159.4 29.7c-.1 0-.1.1-.2.1-1.5 3.4-8.8 15.6-31.6 9.9-1.8-.5-4.6-1.5-6.1-2.6-.1 1.1.3 2.4.7 3.1 6.1 6.8 23.6 7.5 30.4 2.5 4.3-3.1 6.2-8 6.8-13z" fill="#c6523c"/><path d="m158.4 28.6s-2.6 7.9-11.1 11.3c0 0 8.3-.5 12.4-8.4l.1-2.3z" fill="#712c2c"/><path d="m121 36s2.8 2.2 7.1 4c0 0-4.2-.4-8-1.9l-.4-1.4z" fill="#712c2c"/><path d="m148 11.9c-7.7-4.7-16.9-7.4-25.5-8.1-11.9-1.1-24.7 1.2-34.5 8.2-5.8 4.1-9.8 10.4-12.9 17.7 9.4-16 29.6-32.1 72.9-17.8z" fill="#fff"/><path d="m127.2 70.1s3.1 4.2 10.4 3c0 0-4.7 3-10.8.5s-6-4.3-5.3-4.5c.6-.3 5.7 1 5.7 1z" fill="#602a22"/><path d="m81.6 54.6s-5.8 3.1-11.3-.5c0 0 2.9 5.1 10 4.2s7.2-1.9 6.6-2.3c-.5-.5-5.3-1.4-5.3-1.4z" fill="#602a22"/><path d="m138.6 44.5c6.1 2.9 9.4 9.8 7.6 16.5-2 7.6-9.8 12.1-17.4 10-7.6-2-12.1-9.8-10-17.4 1.9-7.1 8.1-12.2 15.2-11.1 1.2.2 3.4 1.4 4.6 2z" fill="#602a22"/><circle cx="132.5" cy="57.3" fill="#d26c27" r="12.4"/><path d="m131.9 41.8c7.8 2.1 11.1 9.8 7.9 18-1.2 9-7.7 12.5-15.6 10.4-7.8-2.1-12.5-10.2-10.4-18 2.2-7.8 10.3-12.5 18.1-10.4z" fill="#602a22"/><circle cx="128.1" cy="56" fill="#feca2a" r="12.9"/><path d="m131.4 43.6c3.1.8 5.7 2.7 7.3 5.2-12.5.5-19.9 6.7-23.1 10.4-.5-2.1-.6-4.3 0-6.5 1.8-6.9 8.9-11 15.8-9.1z" fill="#fff57b"/><circle cx="128.1" cy="56" fill="#602a22" r="9.7"/><circle cx="128.1" cy="56" fill="#445262" r="8.2"/><path d="m73.2 48.4-6 .4s-1.1-5.4 1.8-8.8l5.7-1z" fill="#602a22"/><path d="m104.2 23.5c2.7 3-.4 14.7-4.1 17-8.1 5.1-24.3-5.3-27.3-13.2-1.9-4.8-2.1-10.9 1.8-18.5.5-1 1.1-1.4 1.5-.3.5 1.6 2.3 3.6 5.8 5.7 6.5 3.9 17.2 3.8 22.3 9.3z" fill="#712c2c"/><path d="m75.4 11.3c6.3 8.9 16.3 7.2 24.5 11.7 2 1.1 3.5 2.5 3.4 5.2-.1 3.2-1.5 8.5-4 10.1-7.9 3-21.7-4.8-24.6-12.4-1.9-4.8-1.1-10 .7-14.6z" fill="#f38d25"/><path d="m75.4 11.3c6.3 8.9 16.3 7.2 24.5 11.7.8.4 1.5.9 2.1 1.5-.2-.1-.4-.2-.6-.3-5.3-2.8-11-2.7-17.2-3.9s-7.3-3-7.3-3c-1 7.8 1.8 13.3 3.5 15.7-2.6-2.1-4.7-4.6-5.7-7-1.9-4.9-1.1-10.1.7-14.7z" fill="#fcd260"/><path d="m100.3 23.2c1.8 1.1 3.1 2.4 3 5-.1 3.2-1.5 8.5-4 10.1-2.1.8-4.6.8-7.3.3 6.4-2.8 7.9-11.2 8.3-15.4z" fill="#c6523c"/><path d="m99.7 26.9s-1.1 6.5-5.8 9.9l2.8 1.5c0-.1 4-4.9 3-11.4z" fill="#712c2c"/><circle cx="90.5" cy="46.8" fill="#602a22" r="13.8"/><circle cx="90.5" cy="46.8" fill="#ca7b26" r="12.1"/><circle cx="86.3" cy="45.5" fill="#602a22" r="14.3"/><circle cx="86.2" cy="45.5" fill="#feca2a" r="12.5"/><path d="m89.5 33.5c2.7.7 5 2.3 6.6 4.4-11 3.1-17.7 9.8-20.8 13.6-1.5-2.7-2-6-1.1-9.2 1.8-6.7 8.6-10.6 15.3-8.8z" fill="#fff57b"/><circle cx="86.2" cy="45.5" fill="#602a22" r="9.4"/><circle cx="86.2" cy="45.5" fill="#445262" r="8"/><path d="m102.7 40.7s10.7-2.2 17 4.9l-3.8 3.5-1.7 6.6s-5-7.6-11.2-8.1c.9-2.7.4-4-.3-6.9z" fill="#602a22"/><path d="m161.6 76.6s7.3-10.2 16.8-7.2 7 19.1-2.9 23.9c-9.9 4.9-16.4-.1-17.4-1.4s3.5-15.3 3.5-15.3z" fill="#732e27"/><path d="m163.1 75.8s7-6.7 15.3-4c10.3 3 0 30.3-20.2 19.3l.9-8.5z" fill="#eab48b"/><path d="m163.1 75.8s5.7-5.2 13.6-3.1c8.8 3 1.7 29.3-18.5 18.3l.9-8.5z" fill="#cb7461"/><path d="m158.8 84.1s7.1-7.2 20.3-7.1c0 0-9.7 1.9-19.7 10.1l-1.1-.6z" fill="#732e27"/><path d="m166.9 81.2s1.9 5.4-2.7 9.8c0 0 7.8-2.2 5.1-11.6l-1.3.6z" fill="#732e27"/><path d="m66.7 50.7s3.2 15.3 21.1 7l19.4 2.6s6.9.1 12.2 6.6c7.7 9.3 18.2 12.8 25.3 10.7 7.3-2.2 12.6-10.1 14.7-22 0 0 6.1-.7 9.7-.4 4.9.4 4.5 2.4 1 6.3 0 0 2.4.4 1.7 2.9-.8 2.6-3.5 5.4-9.3 12 0 0 .1 5.5-.5 12.6-.9 9.3-1 17.4-8 24.7-8 8.3-29.9 21.9-61.6 12.7l-7.6-1.6s-33.3-12-35.7-43.8c-.2-3.1.5-4.4 2.3-6.9 3.4-4.6 12.4-17.9 15.3-23.4z" fill="#602a22"/><path d="m115.5 66.3c21.6 22.6 39.6 16.1 46-9 0 0 8.1-1.2 9.2-.2s-3.5 5.7-5.1 6.4l3.7-.5s2.5.8-2.1 4l-6.2 7.6-2.1 22.2c-.7 7-4.2 11.8-8.3 16-6.4 6.6-15.2 11-24.8 13-12 2.5-23.1 1.6-34.5-1.4-18-4.6-39.5-22.9-39.8-44.8.1-1 .3-1.8.6-2.4 0 0 9.6-14 14.2-20.9 0 0 4.3 10.1 28 5.6l5.8-.3z" fill="#f59931"/><path d="m88.3 84.7s1.4 2.8 1.6 5.9c0 0 2.1-.6 4.3-3.7 0 0 .9 6.9 3.4 10.2 0 0 .9-5.4 3.4-10 0 0-4.5-3.3-4.9-3.3-.5.1-7.8.9-7.8.9z" fill="#ca6921"/><path d="m161.6 57.3c1-.1 8-1.1 9.1-.2 1.1 1-3.5 5.7-5.1 6.4l3.7-.5s2.5.8-2.1 4l-6.2 7.6-2.1 22.2c-.7 7-4.2 11.8-8.3 16-3.1 3.2-6.8 5.9-10.8 8-8-3.2-13.4-7.3-5.6-9.8 14.9-4.8 9.7-23 9.7-23 15.2-8.6 17.4-25.8 17.7-30.7z" fill="#ca6921"/><path d="m51.5 79.7c.1-1 .3-1.8.6-2.4 0 0 9.6-14 14.2-20.9 0 0 .2.6.9 1.4-4.1 7.3-7.1 15.3-10 23.2 0 0 10.5 21.7 44.4 31 14 3.8-49.7 5.7-50.1-32.3z" fill="#fcd260"/><path d="m115.5 65s6.9 1.7 10.6 10.5 13.9 14.3 21.4 10.8c0 0 2.9 13.5-11.6 14.4 0 0-4.7 5.7-12.4 1.2 0 0-7.5 3.4-13.9-5.9 0 0-4.3-1.1-8.3-4.2-2.3-1.8-5.7-3.6-12.4-6.5-2.3-1 6-6.6 6.6-10.2 0 0 4.2-11 5.4-10.8 1 .1 14.6.7 14.6.7z" fill="#ca6921"/><path d="m53 75.8c1.4-2 4.1-6 6.9-10.1 5.2 1.6 11.7.5 16.5-3 .1-.1.1-.1.2-.2 4.1.8 9.8.9 17.6-.6l1.3-.1c3.2 1.6 6.8 3.5 7.4 3.7 1.1.4-1.5 10.7-1.5 10.7-6.2 16.5-20.9 10.9-20.9 10.9-9.7 4.5-14.4-1.9-14.4-1.9-8.5 0-9.8-6.9-9.8-6.9-1.3-.7-2.4-1.6-3.3-2.5z" fill="#ca6921"/><path d="m157.9 101.5c-1.4 4.6-4.2 8.1-7.3 11.3-6.4 6.6-15.2 11-24.8 13-12 2.5-23.1 1.6-34.5-1.4-17.8-4.5-39-22.4-39.8-44 22.4 40.4 79.9 37.7 106.4 21.1z" fill="#ca6921"/><path d="m152.6 103.1s-5.8 4.7-19.7 7.7c0 0 8.9.2 21.3-3.8 0 0 .9-1.7.5-1.9-.3-.1-2.1-2-2.1-2z" fill="#602a22"/><path d="m87.3 56.4s-6.3-1.8-13.2 3.3-18.6 5.6-22.9-.6c0 0-7.4 8.4 3.8 15.6 0 0 1.6 6.7 9.7 6.7 0 0 5.1 5.5 13.4 2 0 0 14.3 3.2 19.8-10.9 0 0 2.5-9.7 1.5-10.2-1-.2-12.1-5.9-12.1-5.9z" fill="#602a22"/><path d="m88.1 58.4s-5.5-1.9-12.2 3.1-17.8 5.6-24.5.3c0 0-3.9 6.3 3.9 10.8 0 0 4.7 1.7 8.8-.8 0 0-2.1 3.3-7.5 3.2 0 0 5 8 14.8 2.7 0 0-1.7 2.7-4.6 3.4 0 0 9.3 4.9 14.6-3.8 0 0 .5 1.7-1.3 4.5 0 0 13.7 1.7 16.6-12.6l-1.1-5.5z" fill="#f59931"/><path d="m58.3 75.6c.5.8 4.7 5.6 13.2 2.2 0 0-1.7 2.7-4.6 3.4 0 0 8.9 2.8 14.6-3.8 0 0 1.1 1-.8 3.8 0 0 13.1-.1 16.1-11.9l-.1-.6c-1.4-.7-7.1-3.3-7.1-3.3s.5 5.3-6.6 8c0 0 .4-2 .2-4.1 0 0-2.3 4.9-10.4 6.5 0 0 2.2-1.6 2.5-4-.2 0-6.3 7-17 3.8z" fill="#cd6e20"/><path d="m88.1 58.4s-5.5-1.9-12.2 3.1-17.8 5.6-24.5.3c.6 1.5 3.9 8.1 15.8 6.6 12.1-1.5 13.4-8 24.1-7.6z" fill="#fac664"/><path d="m115.3 62.3s6.6 1.6 10 9.9c3.5 8.3 13.7 14.5 20.8 11.1 0 0 2.2 11.8-11.5 12.6 0 0-4.5 5.4-11.7 1.2 0 0-7.1 3.2-13.2-5.5 0 0-15.3-2.5-12.3-19.9 0 0 2.9-10.2 4-10.1 1.1.2 13.9.7 13.9.7z" fill="#602a22"/><path d="m113.4 63.6s5.9 1.1 9.3 9.2 13 14.5 21.800333 13.1c0 0 .199667 7.8-9.200333 8 0 0-5.2-.9-7.5-5.3 0 0 .2 4.2 5 7 0 0-8.7 4.8-14.7-5.3 0 0 .1 3.4 2.4 5.6 0 0-10.9-.3-11-11.2 0 0-1.4 1.3-1.2 4.9 0 0-13.2-5.6-8.3-20.4l3.8-4.5z" fill="#f59931"/><path d="m143 86.7c-1.5 7-11.9 8.2-15.2 1.9 0 0-.6 4 2.1 6.6 0 0-7.3 1.3-11.7-4.9 0 0 .1 3.4 2.4 5.6 0 0-10.9-.3-11-11.2 0 0-1.4 1.3-1.2 4.9 0 0-10.2-4.4-9.3-15.5l6.9 1.9s2.1 8.9 12.2 9.8c0 0-1.6-1.9-2.6-5.6 0-.1 9.1 10.4 27.4 6.5z" fill="#cd6e20"/><path d="m113.4 63.6s2.9.5 5.8 3.6c-.5 7.4-7 9.9-13.6 8.5 0 0-1.5 2.8-6.2 3.4-.7-2.7-.7-6 .7-9.9l3.8-4.5z" fill="#cd6e20"/><path d="m83.8 115.2s-2.8 3.6-1 7.9c0 0 10.9-4.1 19.5 4.3 0 0 3-3.2 2.7-7.9 0 .3-7.1-10-21.2-4.3z" fill="#6e2623"/><path d="m84.6 122.3s-1.3-2.5.7-5.8c.2.2 10.7-4.1 17.9 3.9 0 0 .4 2.5-2.5 6.1l-13.5-3.5c0-.1-2.6-.8-2.6-.7z" fill="#feca2a"/><path d="m84.6 122.3s-1.3-2.5.7-5.8c.1.1 2.7-.9 6.3-1-2 .7-4.4 2.2-4.4 5.8l6.3 1.5s-1.7.1-3.6.8l-2.7-.7s-2.6-.7-2.6-.6z" fill="#fffb74"/><path d="m98 116.6c1.8.8 3.6 1.9 5.2 3.8 0 0 .4 2.5-2.5 6.1l-9.7-2.5c.5-.3 1.2-.5 2-.8 4.6-1.7 5.2-4.6 5-6.6z" fill="#d26c27"/><path d="m83.2 122.4s-2.8 4.1-1.1 8.7c0 0 9.7-4.7 17.8 4.2 0 0 3-2.8 2.8-7.8-.2.8-5.9-10.7-19.5-5.1z" fill="#6e2623"/><path d="m83.7 130.4s-1.1-2.6.8-6.2c0 0 9.7-4.9 16.4 3.7 0 0 .3 2.6-2.4 6.5l-12.4-3.4s-2.3-.6-2.4-.6z" fill="#feca2a"/><path d="m83.7 130.4s-1.1-2.6.8-6.2c0 0 3.5-1.8 7.7-1.3-2.4.4-7.4 1.9-6.9 7.3v.6c-.6-.2-1.5-.4-1.6-.4z" fill="#fffb74"/><path d="m95.9 123.9c1.7.8 3.5 2.1 5.1 4.1 0 0 .3 2.6-2.4 6.5l-10.2-2.8c.6-.4 1.5-.8 2.7-1.2 4.5-1.6 5-4.7 4.8-6.6z" fill="#d26c27"/><path d="m84 153.7s13.8-2.5 16.5-13.2c4.5-15.4-23.9-17.3-21.9-3.1.8 6.1 6.3 7.2 5.4 16.3z" fill="#602a22"/><path d="m86.2 151.6s10-2.2 12.2-10.9c1.8-6-1.6-10-7.6-11-6.1-1-10.8 2.5-10 8.4.7 5.1 5.6 6.5 5.4 13.5z" fill="#f38d25"/><path d="m91.2 129.9s.5 4.2-2.2 8.9c0 0 3.2-2.4 4.3-5.7 1.2-3.3-2.1-3.2-2.1-3.2z" fill="#c6523c"/><path d="m90.6 129.8c-6-.9-10.6 2.6-9.8 8.5.6 4.4 4.7 6.1 5.3 11.5 1.8-6.8-7.9-17.6 4.5-20z" fill="#ffd545"/><path d="m86.3 151.6c.9-.2 10-2.6 12.1-10.9 1.7-5.9-1.4-9.8-7.2-10.9 1 3.1 5.1 14.9-4.9 21.8z" fill="#c6523c"/><path d="m93.4 51.8s-7.4-.1-8.2 7.2c0 0-.3 3.8 3.8 5.3 1.8 8.5 11.4 10.1 17.8 6.6 9.9 5.3 15.9-5.5 7-14 1.6-12.3-16.4-14.5-20.4-5.1z" fill="#732e27"/><path d="m107.3 45.8s-7-1.6-11.1 6.1c0 0 2.4-.1 5.2 1.4 0 0-11.8-2-14.2 4.4 0 0-.9 2.7 1.5 3.9 0 0 .2-2.2 1.7-3.4 0 0-1.5 9.2 5.8 11.9 7.4 2.6 13.8-4 13.8-4s-.2 2.1-1.9 3.6c10.1 3.4 10.3-8.4 2.4-13 0 0 .4-.3 1.6-.5 2.1-5.2 1-9.3-4.8-10.4z" fill="#eab48b"/><path d="m110.9 56.7c.2-.1.7-.2 1.3-.4 1.5-4.1 1.2-7.5-1.7-9.3.4 1.4 1.1 4.9-1.3 6.7 0 0-1.8-.6-4.3-.2.1.1 2.6.6 6 3.2z" fill="#cb7461"/><ellipse cx="97.6" cy="55.8" fill="#f1d2a3" rx="7.5" ry="2.5"/><path d="m101.2 53.3c-2-.3-11.7-1.3-13.9 4.5 0 0-.9 2.7 1.4 3.9-2.6-8.2 11.3-8.4 12.5-8.4z" fill="#fff"/><path d="m106.8 45.9s7.9 3.9-8.4 5.7c0 0 .6-2.4 3.1-4.2 2.4-1.7 5.3-1.5 5.3-1.5z" fill="#f1d2a3"/><path d="m107.3 45.8s-7-1.6-11.1 6.1c0 0 .7 0 1.7.2 1-1.6 4.3-5.9 10.4-6-.2-.1-.6-.2-1-.3z" fill="#fff"/><path d="m91.4 58.3c-1.2 12 11.3 14.7 18.8 7.8 0 0-.2 2.1-1.9 3.6 10.1 3.4 10.3-8.4 2.4-13v.1c-1.3 9.7-17.3 12.6-19.3 1.5z" fill="#cb7461"/><path d="m141.5 66s12.1 4.5 22 7.6c3.8-1.1 4.9-3.7 5.1-7.3l-22.8-11.1c-.1 0-3.3 4.9-4.3 10.8z" fill="#602a22"/><ellipse cx="147.86609" cy="62.35553" fill="#d26c27" rx="2.299931" ry="1.499955" transform="matrix(.25880773 -.96592886 .96592886 .25880773 49.366197 189.04556)"/><path d="m161.4 119.2s-4.1 9-8 18.9c0 0 1.9 15.5 16.8 18.7s22.7-6.6 22.7-6.6l-1.7-25.9 3.7-9.2c0-.1.7-11.2 0-16-.2-1.1-20.3-3.2-28.3-2.9.1 0-7 9-5.2 23z" fill="#482711"/><path d="m163 120.7s-4.2 7.9-7.4 17.8c3.2 17.6 25.6 21.9 34.9 11.2l-1.8-26.2 2.9-8.8-25.1-1.9c.1 0-3.5.5-3.5 7.9z" fill="#885e36"/><path d="m161 125c-1.4 3.1-3.4 7.7-5.1 12.8 1.1 2.2 2.8 4.5 5.4 6.8-2.1-5.2-3.2-11.3 1.5-19.1z" fill="#b38855"/><path d="m172.6 154.3c5.7.8 12.9-.4 16.4-4.4l-.2-26.5 2.4-7.3c-4.7 2.4-8.3 5-9.7 7.5 0 0-3.5 14-8.9 30.7z" fill="#643e25"/><path d="m189.6 143.5s-2.5 4.1-12.2 6.8c0 0 8.1-.2 12.4-2.5z" fill="#885e36"/><path d="m188.9 125.2-.1-1.7 2.7-8.4c-.1-.1-.3-.3-.4-.4l-22.1-1.7c-.8 1.9-1 2.2-4.3 4 0 0 2.5 5.2 8.8 3.9 0 0 5.8 7.1 15.4 4.3z" fill="#643e25"/><path d="m174.4 89.5s-3.1-1.7-6.5-3.3c0 0-7 1.5-15.3 12 0 0-.3 5.9 1.6 15.8 0 0 2.7 3.5 9.1 2.9 0 0 5.2 3.4 11.7 2.5 0 0 4.6 4.3 11 4.4 2.7.1 3.8-4 3.7-5.5-1.1-.9-2.7-.2-3.8-1.1l-.3-6.3 9.6-6.2v-5.8s-2.8-3.6-4.1-4.3c-.7-.2-4.1-.2-5.1-.2 0 0-3.6-4-4.8-4.4-1.1-.3-5.4-.4-6.8-.5z" fill="#482711"/><path d="m166.9 88.3s-5.6 2-12.3 10.4c0 0-.5 4.8 1 13.9 0 0 4.6 2.4 8 1.7 0 0 4.9 4.1 11.4 2.5 0 0 3.4 4 10.5 4.7.3 0 1.2-1.6 1.1-1.9-.1-.4-2.4-2.1-2.4-2.1l.3-7.8 8.5-7.2.1-3.4s-1.2-1.5-3-3c0 0-3.9-.3-8 .5l1.3-1.4s-1.5-2.4-3.3-3.7c0 0-4.8-.5-10 .3l1.5-1.3s-4-2.1-4.7-2.2z" fill="#885e36"/><path d="m190.2 96.2c-.1 0-3.4-.3-7.2.3-1.6 1.9-5.2 6.8-7.1 10.5 0 0 7.2-9.4 14.3-10.8z" fill="#b38855"/><path d="m180 91.5c-.5-.1-3.7-.3-7.5 0-3.3 1.8-6.4 4.8-8.3 9.7 0 0 7.5-8 15.8-9.7z" fill="#b38855"/><path d="m166.9 88.3s-5.6 2-12.3 10.4v.2s7.9-9.2 16.9-8.5c-.6-.2-4-2-4.6-2.1z" fill="#b38855"/><path d="m154.6 99.1c-.1 1.2-.3 5.8 1 13.6 0 0 4.6 2.4 8 1.7 0 0 4.9 4.1 11.4 2.5 0 0 3.4 4 10.5 4.7.3 0 1.2-1.6 1.1-1.9-.1-.4-2.4-2.1-2.4-2.1l.3-7.8c-6.3 0-8.9-3.2-8.9-3.2-4.9.4-11.1-4.1-11.7-5.6-.3-.8-1.1-.3-1.1-.3-4.3 1.1-7.1-.7-8.2-1.6z" fill="#643e25"/><path d="m163 115.7-.9-15.1s3.1-3.8 5.9-5.8l-3.7 6.4 1.2 15.3z" fill="#482711"/><path d="m173.8 118.8v-12.3s3-3.4 5.8-5.4l-3.6 6 .7 12.5z" fill="#482711"/><path d="m168.8 110.1s-4.5-2.1-12.8-5.8c0 0-6.2.9-10.5 7.1 0 0 1 6.1 2.9 9.9 0 0 3.8 3.1 12.9 4.8l5.1.4-4.6-1.9 1.5-5.4s5.2-1.2 7.1-6.8c.6-1.4-.2-1.7-1.6-2.3z" fill="#482711"/><path d="m167.9 111.7s-7.7-3.2-12.2-5.3c0 0-4 1-7.7 5.8 0 0 .4 4 2.1 7.3 0 0 5.1 3.5 13.9 5.8l1.4-7s-2.7 1.9-6.1.6c0 0 5.5-.3 8.6-5.9.2 0 .8-.9 0-1.3z" fill="#885e36"/><path d="m167.9 111.7s-7.7-3.2-12.2-5.3c0 0-4 1-7.7 5.8 1.4.5 7.5 2.4 12.6 2.3 4.9-.1 6.9-2 7.4-2.6.1-.1 0-.1-.1-.2z" fill="#b38855"/><path d="m192.6 103.3 15.9 5.7-6.5 15.5-16.9-7-.4-7.9z" fill="#482711"/><path d="m207.1 111.6-14.8-5.7c-2.1 1.4-4.5 4.1-5.4 4.8-.2.5-.6 4.2-.5 5.7l15.4 5.7z" fill="#955b58"/><path d="m209.9 106.5-10.7-2.5h-.1c-2-.6-5.2 3.5-7.2 9s-2.2 10.8-.2 11.6h.1l9.9 4.7z" fill="#6e2623"/><path d="m207.6 108.3-6.8 18.4-8-3.9c-1.6-3.9 2.3-14.9 6-16.8z" fill="#fcc75a"/><path d="m192.9 122.4 7.1 3.3s.6-8.1-1.4-8.7c-2-.5-5.6 5.4-5.7 5.4z" fill="#d56853"/><path d="m192.8 122.8c-1.7-3.9 2.2-15 5.9-16.8l3.2.8c-.3.2-.5.4-.8.6-7.5 5.6-8.2 13.8-8.3 15.4z" fill="#fff"/><path d="m207.6 108.3-1 2.7-10.4-2.5c.8-1.2 1.7-2.1 2.5-2.5z" fill="#fff"/><path d="m210 106.6c-2.1-.8-6.1 4.5-8.2 10.1s-2.1 11.9-.1 12.6 5.6-3.2 7.9-9.6 2.5-12.4.4-13.1z" fill="#6e2623"/><path d="m209.6 109.6c-1.2-.4-3.6 3.1-5.4 7.8-1.8 4.8-2.2 9-1.1 9.4 1.2.4 3.6-3.1 5.4-7.8s2.3-8.9 1.1-9.4z" fill="#ffb25b"/><path d="m209.6 109.6c-1.2-.4-3.6 3.1-5.4 7.8-1.8 4.8-2.2 9-1.1 9.4 1.2.4 3.6-3.1 5.4-7.8s2.3-8.9 1.1-9.4z" fill="#d56853"/><path d="m56.2 148.1s-14.3 3.2-20.6 20.3c0 0 8.2 14.5 26.4 16.6 4.6-.2 2 1.7 7.8 3 1.8.4 4 .3 6 0l5.4-22.1c-.8-.3-1.5-.6-2.2-.9-7-3-17.8-6.4-22.8-16.9z" fill="#885e36"/><path d="m56.2 148.1s-13.4 3-20 18.6c2.3-3.4 8.7-11.6 18.3-14.9 0 0 3 8.1 24.1 13.1h.2c-7-3-17.6-6.4-22.6-16.8z" fill="#b38855"/><path d="m190.9 145.4s-6.7 6.2-21.9 4.8c0 0 9.8 4.1 22.5-1.3l.1-1.3c.1 0-.4-2.2-.7-2.2z" fill="#482711"/><path d="m52.5 157.5s-8.4 3.8-13.9 17l2.4 1.7c.1-.1 2.7-11.9 11.5-18.7z" fill="#482711"/><path d="m51.4 77.7s3.7 8.7 9.2 14.9c0 0-7.4-4.5-11.3-11.8v-2.2z" fill="#602a22"/><path d="m92.9 138.9s-.8 7-8.2 11.8l.6 2.3 1.9-.2c-.1.1 7.2-4.6 5.7-13.9z" fill="#602a22"/><path d="m126.1 82.2c0 .4 1.8 5.6 8.2 7.3l7.7-2.4c-4.1.5-10.6-.5-15.9-4.9z" fill="#ca6921"/><ellipse cx="84.76962" cy="43.47287" fill="#868785" rx="5.899918" ry="4.399939" transform="matrix(.78491092 -.61960863 .61960863 .78491092 -8.703146 61.874528)"/><ellipse cx="126.41518" cy="53.70559" fill="#868785" rx="5.899918" ry="4.399939" transform="matrix(.78491092 -.61960863 .61960863 .78491092 -6.085922 89.879422)"/><ellipse cx="83.598537" cy="50.500088" fill="#868785" rx="1.699983" ry="1.299987" transform="matrix(.99961002 -.02792508 .02792508 .99961002 -1.377617 2.35419)"/><ellipse cx="125.698277" cy="61.399994" fill="#868785" rx="1.699983" ry="1.299987" transform="matrix(.99961002 -.02792508 .02792508 .99961002 -1.66558 3.534079)"/><g fill="#482711"><path d="m155.1 138.2s1.9 5.1 7.4 7.6c0 0-4.7-5.1-6.7-10.6 0 0-1.1.8-1 1.2 0 .4.3 1.8.3 1.8z"/><path d="m60.7 152.8s-4 1.4-7 3.9c0 0 4.8-1.9 8.4-2.2l.1-1s-1.4-.7-1.5-.7z"/><path d="m141.5 158.2s-9.8 5.9-26.5 7.9c0 0 15.1.4 27.1-5l.6-2z"/><path d="m69.7 162.1s-.1-2.8 1-3.7c2-1.7 5.8-3.7 7.4-4.5 0 0 5.4 3.6 10.5 10.2l-2.8 1.5z"/></g><path d="m68.3 163.2s6.9-4.7 9.4-6.6c0 0 4.7 3.8 7.3 7-3.7-.2-13.5 2.4-16.7-.4z" fill="#885e36"/><path d="m76.5 161.8c1.1-.7.4-.7 1.5-.5 6.1.6 13.2 1.1 18.8 2.3 1.7 3.3 1 11.1-2.1 12.8 0 0-.7 6.9-4.8 8.5 0 0-.7 4.3-3.6 6.5 0 0-10.5 2.4-26.7-4.4l10.5-24.1s.6-2.7 6.4-1.1z" fill="#482711"/><path d="m85.3 189c-5.9-.8.5-12 2.1-14.4 2.9-4.4 8.3-7.2 8.2-8l-17.3-4.5-1.1-.4-3.5-2.1c-1.3.7-3.2 1.7-4.3 2.8-7.2 6.2-9.5 12.8-10.2 21.6 8.1 4.6 17.9 6.1 26.1 5z" fill="#885e36"/><path d="m79.4 189.1h2l4.5-8.2 6-15.3-13.6-3.5c-.6-.2-.5.1.1.4 2.9 1.6 7.7 4.4 8.7 5 0 0-8 20.8-7.7 21.5z" fill="#b38855"/><path d="m79.2 189.4c1.8 0 3.9-.1 6-.4 0 0 1.3-.8 2.5-4.1-1.1 0-3.4 0-3.3-.4.1-.2 7.5-.8 8.5-7.8-1.2 0-4 0-5.1-.4 0 0 4-.8 6.2-1.6 0 0 2.8-2.5 1.5-8.2l-4.6-1.2c-2.6 7.1-10 21-11.7 24.1z" fill="#643e25"/></g></svg>